<svg width="24" height="24" viewBox="0 0 24 24" fill="none" xmlns="http://www.w3.org/2000/svg">
<path d="M12 6.21436C4.82179 6.21436 1.80804 12.6697 1.80804 12.8036C1.80804 12.9376 4.82179 19.3929 12 19.3929C19.1782 19.3929 22.1919 12.9376 22.1919 12.8036C22.1919 12.6697 19.1782 6.21436 12 6.21436Z" stroke="black" stroke-linecap="round" stroke-linejoin="round"/>
<path d="M3.71821 9.96435L1.04633 7.29248" stroke="black" stroke-linecap="round" stroke-linejoin="round"/>
<path d="M8.80256 6.68283L7.71344 3.15942" stroke="black" stroke-linecap="round" stroke-linejoin="round"/>
<path d="M20.2819 9.96435L22.9536 7.29248" stroke="black" stroke-linecap="round" stroke-linejoin="round"/>
<path d="M15.1974 6.68283L16.2866 3.15942" stroke="black" stroke-linecap="round" stroke-linejoin="round"/>
<path d="M12.0481 17.1639C14.388 17.1683 16.2885 15.2751 16.2929 12.9354C16.2973 10.5957 14.4039 8.69543 12.064 8.69105C9.724 8.68666 7.82353 10.5798 7.81915 12.9195C7.81476 15.2593 9.70811 17.1595 12.0481 17.1639Z" stroke="black" stroke-linecap="round" stroke-linejoin="round"/>
<path d="M11.9981 13.9981C12.5514 13.9992 13.0008 13.5531 13.0019 13.0019C13.0029 12.4506 12.5552 12.0029 12.0019 12.0019C11.4486 12.0008 10.9992 12.4469 10.9981 12.9981C10.9971 13.5494 11.4448 13.9971 11.9981 13.9981Z" stroke="black" stroke-width="2" stroke-linecap="round" stroke-linejoin="round"/>
</svg>
