<svg width="24" height="24" viewBox="0 0 24 24" fill="none" xmlns="http://www.w3.org/2000/svg">
<path d="M20.8151 2.9811C20.1353 2.32995 19.3862 2 18.586 2C17.3348 2 16.4217 2.80834 16.1722 3.05595C15.8204 3.40398 3.83137 15.398 3.83137 15.398C3.75278 15.4766 3.69602 15.5752 3.66671 15.6824C3.39664 16.6816 2.04193 21.115 2.02821 21.1599C1.95835 21.3869 2.02072 21.6346 2.18788 21.8017C2.30825 21.9215 2.46855 21.9857 2.63259 21.9857C2.69745 21.9857 2.76232 21.9757 2.82594 21.9552C2.87147 21.9402 7.44767 20.4614 8.20112 20.2362C8.30029 20.2063 8.39135 20.1526 8.46495 20.0796C8.94085 19.6094 20.1228 8.55151 20.865 7.78496C21.6328 6.99409 22.0145 6.16954 21.9996 5.33688C21.984 4.5142 21.5854 3.72208 20.8139 2.98173L20.8151 2.9811ZM15.9732 5.05059C16.2907 5.12731 17.0404 5.37929 17.8057 6.15145C18.5791 6.93172 18.7881 7.82363 18.8274 8.02696C16.3749 10.4669 10.7297 16.0523 8.50424 18.2534C8.29904 17.775 7.9666 17.1981 7.43208 16.6598C6.77967 16.0024 6.11541 15.6313 5.60334 15.4224C7.80568 13.2194 13.5576 7.46562 15.9726 5.05122L15.9732 5.05059ZM4.75696 16.4746C5.10001 16.5656 5.81166 16.8301 6.53705 17.5611C7.09589 18.1249 7.35973 18.7461 7.47823 19.1254C6.61127 19.4042 4.71268 20.0591 3.50704 20.4483C3.86442 19.2719 4.46818 17.4407 4.75696 16.4746ZM19.9607 6.89305C19.9351 6.91924 19.8927 6.96166 19.8421 7.0128C19.6451 6.5051 19.2995 5.85269 18.7001 5.24893C18.0883 4.63208 17.4677 4.26845 16.9706 4.05327C17.013 4.01148 17.0454 3.97843 17.0585 3.96595C17.1296 3.89547 17.7776 3.27612 18.5847 3.27612C19.0494 3.27612 19.506 3.48819 19.9413 3.90607C20.4578 4.40193 20.7247 4.89092 20.7334 5.35996C20.7422 5.83897 20.4815 6.35478 19.96 6.89305H19.9607Z" fill="black"/>
</svg>
